<svg xmlns="http://www.w3.org/2000/svg" width="129.5" height="129.5" viewBox="0 0 129.5 129.5">
  <g id="reshot-icon-megaphone-ESVZ28C65R" transform="translate(-1 -1)">
    <g id="Group_378" data-name="Group 378" transform="translate(11.139 11.139)">
      <g id="Group_377" data-name="Group 377">
        <path id="Path_695" data-name="Path 695" d="M95.539,40.928A54.611,54.611,0,1,0,150.15,95.54,54.612,54.612,0,0,0,95.539,40.928Z" transform="translate(-40.928 -40.928)" fill="#edf3fc"/>
      </g>
    </g>
    <g id="Group_380" data-name="Group 380" transform="translate(1 1)">
      <g id="Group_379" data-name="Group 379" transform="translate(0 0)">
        <path id="Path_696" data-name="Path 696" d="M65.75,1A64.75,64.75,0,1,0,130.5,65.751,64.823,64.823,0,0,0,65.75,1Zm0,127.426a62.676,62.676,0,1,1,62.676-62.675A62.746,62.746,0,0,1,65.75,128.426Z" transform="translate(-1 -1)" fill="#edf3fc"/>
      </g>
    </g>
    <g id="Group_382" data-name="Group 382" transform="translate(34.857 85.964)">
      <g id="Group_381" data-name="Group 381">
        <path id="Path_697" data-name="Path 697" d="M143.3,340.176a5.8,5.8,0,0,1-4.215-4.215l-.088-.354-.089.354a5.8,5.8,0,0,1-4.215,4.215l-.354.089.354.089a5.8,5.8,0,0,1,4.215,4.214l.089.354.088-.354a5.8,5.8,0,0,1,4.215-4.214l.354-.089Z" transform="translate(-134.338 -335.607)" fill="#5d8ef9"/>
      </g>
    </g>
    <g id="Group_384" data-name="Group 384" transform="translate(53.882 90.201)">
      <g id="Group_383" data-name="Group 383">
        <path id="Path_698" data-name="Path 698" d="M225.8,360.724a10.7,10.7,0,0,1-7.78-7.779l-.163-.654-.165.654a10.7,10.7,0,0,1-7.779,7.779l-.654.165.654.165a10.7,10.7,0,0,1,7.779,7.778l.165.653.163-.653a10.7,10.7,0,0,1,7.78-7.778l.654-.165Z" transform="translate(-209.26 -352.292)" fill="#5d8ef9"/>
      </g>
    </g>
    <g id="Group_386" data-name="Group 386" transform="translate(79.97 27.83)">
      <g id="Group_385" data-name="Group 385">
        <path id="Path_699" data-name="Path 699" d="M321.812,111.665a6.349,6.349,0,0,1-4.615-4.615l-.1-.388-.1.388a6.347,6.347,0,0,1-4.615,4.615l-.388.1.388.1A6.347,6.347,0,0,1,317,116.475l.1.387.1-.387a6.348,6.348,0,0,1,4.615-4.614l.388-.1Z" transform="translate(-312 -106.663)" fill="#ffbe1b"/>
      </g>
    </g>
    <g id="Group_388" data-name="Group 388" transform="translate(32.151 26.392)">
      <g id="Group_387" data-name="Group 387">
        <path id="Path_700" data-name="Path 700" d="M142.514,110.6a12.187,12.187,0,0,1-8.86-8.858l-.185-.744-.187.744a12.184,12.184,0,0,1-8.858,8.858l-.745.187.745.187a12.183,12.183,0,0,1,8.858,8.857l.187.744.185-.744a12.187,12.187,0,0,1,8.86-8.857l.745-.187Z" transform="translate(-123.679 -101)" fill="#330d84"/>
      </g>
    </g>
    <path id="Path_701" data-name="Path 701" d="M185.825,308.065h-3.341a2.848,2.848,0,0,1-2.848-2.848V293.094h9.037v12.124A2.848,2.848,0,0,1,185.825,308.065Z" transform="translate(-133.276 -217.925)" fill="#330d84"/>
    <path id="Path_702" data-name="Path 702" d="M322.688,209.866V226.14a8.137,8.137,0,0,0,0-16.274Z" transform="translate(-240.004 -155.83)" fill="#5d8ef9"/>
    <path id="Path_703" data-name="Path 703" d="M148.121,216.723H126.63a10.186,10.186,0,0,1-10.186-10.186v-5.62A10.186,10.186,0,0,1,126.63,190.73h21.491Z" transform="translate(-86.13 -141.553)" fill="#ffbe1b"/>
    <path id="Path_704" data-name="Path 704" d="M241.2,184.8l15.552,10.307a3.311,3.311,0,0,0,5.141-2.76V151.261a3.311,3.311,0,0,0-5.141-2.76L241.2,158.809Z" transform="translate(-179.205 -109.632)" fill="#ffe37b"/>
    <path id="Path_705" data-name="Path 705" d="M103.056,235.2h-1.572a2.984,2.984,0,0,1-2.984-2.984v-.957a2.984,2.984,0,0,1,2.984-2.984h1.572Z" transform="translate(-72.743 -169.566)" fill="#5d8ef9"/>
    <path id="Path_706" data-name="Path 706" d="M368.834,222.182a1.27,1.27,0,0,1-.9-2.167,11.344,11.344,0,0,0,0-16.024,1.269,1.269,0,1,1,1.8-1.8,13.886,13.886,0,0,1,0,19.615A1.265,1.265,0,0,1,368.834,222.182Z" transform="translate(-273.486 -149.83)" fill="#35216d"/>
    <path id="Path_707" data-name="Path 707" d="M393.775,214.508a1.27,1.27,0,0,1-.9-2.167,16.951,16.951,0,0,0,0-23.944,1.269,1.269,0,0,1,1.8-1.8,19.492,19.492,0,0,1,0,27.535A1.267,1.267,0,0,1,393.775,214.508Z" transform="translate(-292.094 -138.196)" fill="#35216d"/>
  </g>
</svg>
